<?xml version="1.0" encoding="utf-8"?>
<!-- Generated by Mocodo 4.1.2 -->
<svg width="722" height="313" viewBox="0 0 722 313" xmlns="http://www.w3.org/2000/svg">
<rect x="0" y="0" width="722" height="313" fill="#ffffbf" stroke="none" stroke-width="0"/>

<!-- Association COMMENTE -->
<g>
	<line x1="74" y1="85" x2="211" y2="85" stroke="#74add1" stroke-width="2"/>
	<line x1="362" y1="85" x2="211" y2="85" stroke="#74add1" stroke-width="2"/>
	<g>
		<path d="M237 60 a14 14 90 0 1 14 14 V85 h-80 V74 a14 14 90 0 1 14 -14" fill="#abd9e9" stroke="#abd9e9" stroke-width="0"/>
		<path d="M251 85 v11 a14 14 90 0 1 -14 14 H185 a14 14 90 0 1 -14 -14 V85 H80" fill="#e0f3f8" stroke="#e0f3f8" stroke-width="0"/>
		<rect x="171" y="60" width="80" height="50" fill="none" rx="14" stroke="#74add1" stroke-width="2"/>
		<line x1="171" y1="85" x2="251" y2="85" stroke="#74add1" stroke-width="1"/>
		<text x="179" y="77.75" fill="#000000" font-family="Verdana" font-size="12">commente</text>
	</g>
	<text x="144" y="77" fill="#d73027" font-family="Verdana" font-size="12">0,N</text>
	<text x="257" y="102" fill="#d73027" font-family="Verdana" font-size="12">1,1</text>
</g>

<!-- Association CATEGORISE -->
<g>
	<line x1="648" y1="85" x2="512" y2="85" stroke="#74add1" stroke-width="2"/>
	<line x1="362" y1="85" x2="512" y2="85" stroke="#74add1" stroke-width="2"/>
	<g>
		<path d="M537 60 a14 14 90 0 1 14 14 V85 h-78 V74 a14 14 90 0 1 14 -14" fill="#abd9e9" stroke="#abd9e9" stroke-width="0"/>
		<path d="M551 85 v11 a14 14 90 0 1 -14 14 H487 a14 14 90 0 1 -14 -14 V85 H78" fill="#e0f3f8" stroke="#e0f3f8" stroke-width="0"/>
		<rect x="473" y="60" width="78" height="50" fill="none" rx="14" stroke="#74add1" stroke-width="2"/>
		<line x1="473" y1="85" x2="551" y2="85" stroke="#74add1" stroke-width="1"/>
		<text x="481" y="77.75" fill="#000000" font-family="Verdana" font-size="12">categorise</text>
	</g>
	<text x="557" y="102" fill="#d73027" font-family="Verdana" font-size="12">0,1</text>
	<text x="446" y="102" fill="#d73027" font-family="Verdana" font-size="12">1,1</text>
</g>

<!-- Association ECRIT -->
<g>
	<line x1="74" y1="85" x2="211" y2="245" stroke="#74add1" stroke-width="2"/>
	<line x1="362" y1="245" x2="211" y2="245" stroke="#74add1" stroke-width="2"/>
	<g>
		<path d="M218 220 a14 14 90 0 1 14 14 V245 h-42 V234 a14 14 90 0 1 14 -14" fill="#abd9e9" stroke="#abd9e9" stroke-width="0"/>
		<path d="M232 245 v11 a14 14 90 0 1 -14 14 H204 a14 14 90 0 1 -14 -14 V245 H42" fill="#e0f3f8" stroke="#e0f3f8" stroke-width="0"/>
		<rect x="190" y="220" width="42" height="50" fill="none" rx="14" stroke="#74add1" stroke-width="2"/>
		<line x1="190" y1="245" x2="232" y2="245" stroke="#74add1" stroke-width="1"/>
		<text x="197" y="237.75" fill="#000000" font-family="Verdana" font-size="12">ecrit</text>
	</g>
	<text x="96.97" y="153" fill="#d73027" font-family="Verdana" font-size="12">0,N</text>
	<text x="271" y="262" fill="#d73027" font-family="Verdana" font-size="12">1,1</text>
</g>

<!-- Entity COMMENTAIRE -->
<g>
	<g>
		<rect x="9" y="34" width="130" height="25" fill="#fdae61" stroke="none" stroke-width="0" opacity="1"/>
		<rect x="9" y="59" width="130" height="77" fill="#fee090" stroke="none" stroke-width="0" opacity="1"/>
		<rect x="9" y="34" width="130" height="102" fill="none" stroke="#f46d43" stroke-width="2" opacity="1"/>
		<line x1="9" y1="59" x2="139" y2="59" stroke="#f46d43" stroke-width="1"/>
	</g>
	<text x="34" y="51.75" fill="#000000" font-family="Verdana" font-size="12">commentaire</text>
	<text x="14" y="76.8" fill="#000000" font-family="Verdana" font-size="12">Identifiant_UNIQUE</text>
	<line x1="14" y1="79" x2="134" y2="79" stroke="#000000" stroke-width="1"/>
	<text x="14" y="93.8" fill="#000000" font-family="Verdana" font-size="12">Corps</text>
	<text x="14" y="110.8" fill="#000000" font-family="Verdana" font-size="12">Date_Creation</text>
	<text x="14" y="127.8" fill="#000000" font-family="Verdana" font-size="12">Date_Mise_a_Jour</text>
</g>

<!-- Entity PODCAST -->
<g>
	<g>
		<rect x="283" y="9" width="158" height="25" fill="#fdae61" stroke="none" stroke-width="0" opacity="1"/>
		<rect x="283" y="34" width="158" height="127" fill="#fee090" stroke="none" stroke-width="0" opacity="1"/>
		<rect x="283" y="9" width="158" height="152" fill="none" stroke="#f46d43" stroke-width="2" opacity="1"/>
		<line x1="283" y1="34" x2="441" y2="34" stroke="#f46d43" stroke-width="1"/>
	</g>
	<text x="338" y="26.75" fill="#000000" font-family="Verdana" font-size="12">podcast</text>
	<text x="288" y="51.8" fill="#000000" font-family="Verdana" font-size="12">Identifiant_UNIQUE</text>
	<line x1="288" y1="54" x2="408" y2="54" stroke="#000000" stroke-width="1"/>
	<text x="288" y="68.8" fill="#000000" font-family="Verdana" font-size="12">Nom_100</text>
	<text x="288" y="85.8" fill="#000000" font-family="Verdana" font-size="12">Description</text>
	<text x="288" y="102.8" fill="#000000" font-family="Verdana" font-size="12">Extrait_Description_300</text>
	<text x="288" y="119.8" fill="#000000" font-family="Verdana" font-size="12">Lien_Fichier_Audio_150</text>
	<text x="288" y="136.8" fill="#000000" font-family="Verdana" font-size="12">Date_Creation</text>
	<text x="288" y="153.8" fill="#000000" font-family="Verdana" font-size="12">Date_Mise_a_Jour</text>
</g>

<!-- Entity CATEGORIE -->
<g>
	<g>
		<rect x="583" y="34" width="130" height="25" fill="#fdae61" stroke="none" stroke-width="0" opacity="1"/>
		<rect x="583" y="59" width="130" height="77" fill="#fee090" stroke="none" stroke-width="0" opacity="1"/>
		<rect x="583" y="34" width="130" height="102" fill="none" stroke="#f46d43" stroke-width="2" opacity="1"/>
		<line x1="583" y1="59" x2="713" y2="59" stroke="#f46d43" stroke-width="1"/>
	</g>
	<text x="620" y="51.75" fill="#000000" font-family="Verdana" font-size="12">categorie</text>
	<text x="588" y="76.8" fill="#000000" font-family="Verdana" font-size="12">Identifiant_UNIQUE</text>
	<line x1="588" y1="79" x2="708" y2="79" stroke="#000000" stroke-width="1"/>
	<text x="588" y="93.8" fill="#000000" font-family="Verdana" font-size="12">Nom_100</text>
	<text x="588" y="110.8" fill="#000000" font-family="Verdana" font-size="12">Date_Creation</text>
	<text x="588" y="127.8" fill="#000000" font-family="Verdana" font-size="12">Date_Mise_a_Jour</text>
</g>

<!-- Entity USERS -->
<g>
	<g>
		<rect x="297" y="186" width="130" height="25" fill="#fdae61" stroke="none" stroke-width="0" opacity="1"/>
		<rect x="297" y="211" width="130" height="93" fill="#fee090" stroke="none" stroke-width="0" opacity="1"/>
		<rect x="297" y="186" width="130" height="118" fill="none" stroke="#f46d43" stroke-width="2" opacity="1"/>
		<line x1="297" y1="211" x2="427" y2="211" stroke="#f46d43" stroke-width="1"/>
	</g>
	<text x="346" y="203.75" fill="#000000" font-family="Verdana" font-size="12">users</text>
	<text x="302" y="228.8" fill="#000000" font-family="Verdana" font-size="12">Identifiant_UNIQUE</text>
	<line x1="302" y1="231" x2="422" y2="231" stroke="#000000" stroke-width="1"/>
	<text x="302" y="245.8" fill="#000000" font-family="Verdana" font-size="12">Fullname_100</text>
	<text x="302" y="262.8" fill="#000000" font-family="Verdana" font-size="12">picture_150</text>
	<text x="302" y="279.8" fill="#000000" font-family="Verdana" font-size="12">Date_Creation</text>
	<text x="302" y="296.8" fill="#000000" font-family="Verdana" font-size="12">Date_Mise_a_Jour</text>
</g>
</svg>